<?xml version="1.0" encoding="UTF-8" standalone="no"?>
<svg id="svg4414" xmlns:rdf="http://www.w3.org/1999/02/22-rdf-syntax-ns#" xmlns="http://www.w3.org/2000/svg" height="1e3" width="1e3" version="1.1" xmlns:cc="http://creativecommons.org/ns#" xmlns:dc="http://purl.org/dc/elements/1.1/" viewBox="0 0 999.99999 999.99999">
 <g id="layer1" transform="translate(0 -52.362)">
  <g id="g4921" transform="matrix(19.984 0 0 19.984 -863.73 -11577)">
   <path id="path4345" d="m80.815 613.24c0.11645 2.7101 2.2923 7.6819 4.6999 7.7332 2.7101-0.11645 4.7406-5.2689 4.7919-7.6765 0.0078-1.3105-0.51629-2.5002-1.37-3.3642-0.85371-0.86396-2.037-1.4022-3.3475-1.4101-1.3105-0.008-2.5002 0.51629-3.3641 1.37-0.86396 0.85371-1.4023 2.037-1.4101 3.3476z" stroke="#000" stroke-width="0.36" fill="none"/>
   <path id="path4370" d="m81.798 607.61c-1.3622-0.36499-2.8156 0.0245-3.8128 1.0216-0.99718 0.99719-1.3866 2.4506-1.0216 3.8128s1.429 2.4262 2.7912 2.7912c0 0-3.0227-1.125-2.0798-4.6438 0.94285-3.5188 4.1231-2.9818 4.1231-2.9818z"/>
   <path id="path4384" d="m74.727 604.12c-2.7593-0.73935-5.7034 0.0495-7.7233 2.0695-2.0199 2.0199-2.8088 4.9641-2.0695 7.7233 0.73935 2.7593 2.8946 4.9145 5.6539 5.6539 0 0-6.1228-2.279-4.213-9.4067 1.9099-7.1278 8.3519-6.04 8.3519-6.04z"/>
   <path id="path4386" d="m79.714 606c-2.3402-0.62704-4.8371 0.042-6.5502 1.7551s-2.3822 4.21-1.7551 6.5502c0.62704 2.3402 2.4549 4.168 4.7951 4.7951 0 0-5.1928-1.9328-3.573-7.9778 1.6198-6.0451 7.0832-5.1225 7.0832-5.1225z"/>
   <path id="path4399" d="m69.842 602.02c-3.2483-0.87038-6.7141 0.0583-9.092 2.4362s-3.3066 5.8438-2.4362 9.092c0.87037 3.2483 3.4076 5.7855 6.6558 6.6558 0 0-7.2079-2.6828-4.9596-11.074 2.2483-8.3909 9.832-7.1103 9.832-7.1103z"/>
   <path id="path4403" transform="matrix(-.0026789 .051710 .17577 -.011098 -73.678 627.54)" d="m-124.14 752.14h-46.726-46.726l23.363-40.465 23.363-40.465 23.363 40.465z"/>
   <path id="path4405" d="m63.709 599.5c2.5071 3.9414 10.033 9.4825 13.667 7.486 3.9414-2.5071 2.5331-11.939 0.53667-15.574-1.1167-1.9612-2.9226-3.284-4.9397-3.8374-2.017-0.5534-4.2452-0.33731-6.2064 0.77941s-3.284 2.9226-3.8374 4.9397c-0.5534 2.017-0.33732 4.2452 0.7794 6.2064z" stroke="#000" stroke-width=".61994" fill="none"/>
   <path id="path4407" d="m71.626 592.18c-0.45182 4.6493 2.0653 13.65 6.1585 14.315 4.6493 0.45183 9.3483-7.847 10.014-11.94 0.32786-2.2329-0.28036-4.3873-1.5288-6.0654s-3.137-2.88-5.3699-3.2079c-2.2329-0.32786-4.3873 0.28037-6.0654 1.5288s-2.88 3.137-3.2079 5.3699z" stroke="#000" stroke-width=".61994" fill="none"/>
  </g>
 </g>
</svg>
